<svg xmlns="http://www.w3.org/2000/svg" viewBox="0 0 1000 650" role="img" aria-label="Dip Position Hold (at the top) exercise tutorial">
  <defs><style>
    .t{font:800 36px -apple-system,BlinkMacSystemFont,'Segoe UI',Arial,sans-serif;fill:#142018}
    .s{font:600 18px -apple-system,BlinkMacSystemFont,'Segoe UI',Arial,sans-serif;fill:#627265}
    .label{font:900 18px -apple-system,BlinkMacSystemFont,'Segoe UI',Arial,sans-serif;fill:#18a058;letter-spacing:.08em}
    .chip{font:700 15px -apple-system,BlinkMacSystemFont,'Segoe UI',Arial,sans-serif;fill:#0c7a3e}
  </style></defs>
  <rect width="1000" height="650" rx="34" fill="#ffffff"/>
  <rect x="18" y="18" width="964" height="614" rx="30" fill="#ffffff" stroke="#dfe9e2" stroke-width="3"/>
  <text x="44" y="64" class="t">Dip Position Hold (at the top)</text>
  <text x="44" y="94" class="s">Scheda fitness didattica originale · Push · Start → End</text>
  <rect x="44" y="104" width="132" height="30" rx="15" fill="#e7f7ed"/><text x="60" y="124" class="chip">Triceps</text><rect x="189" y="104" width="132" height="30" rx="15" fill="#e7f7ed"/><text x="205" y="124" class="chip">Chest</text><rect x="334" y="104" width="132" height="30" rx="15" fill="#e7f7ed"/><text x="350" y="124" class="chip">Shoulders</text>
  <rect x="44" y="152" width="430" height="320" rx="24" fill="#fbfffc" stroke="#dfe9e2"/><text x="66" y="186" class="label">START</text><line x1="72" y1="430" x2="446" y2="430" stroke="#dfe9e2" stroke-width="5" stroke-linecap="round"/><line x1="129" y1="268" x2="129" y2="430" stroke="#18a058" stroke-width="7"/><line x1="389" y1="268" x2="389" y2="430" stroke="#18a058" stroke-width="7"/><circle cx="259.0" cy="286.1" r="13.7" fill="#f1d4bd" stroke="#142018" stroke-width="3"/><path d="M 248.5 305.0 Q 259.0 347.0 269.5 305.0 Z" fill="#d9efe2" stroke="#142018" stroke-width="3"/><line x1="229.6" y1="326.0" x2="248.5" y2="302.9" stroke="#142018" stroke-width="8" stroke-linecap="round"/><line x1="269.5" y1="302.9" x2="288.4" y2="326.0" stroke="#142018" stroke-width="8" stroke-linecap="round"/><line x1="250.6" y1="347.0" x2="232.8" y2="397.4" stroke="#142018" stroke-width="8" stroke-linecap="round"/><line x1="267.4" y1="347.0" x2="285.2" y2="397.4" stroke="#142018" stroke-width="8" stroke-linecap="round"/><ellipse cx="259.0" cy="317.0" rx="42" ry="20" fill="#18a058" opacity=".16"/>
  <rect x="526" y="152" width="430" height="320" rx="24" fill="#fbfffc" stroke="#dfe9e2"/><text x="548" y="186" class="label">END</text><line x1="554" y1="430" x2="928" y2="430" stroke="#dfe9e2" stroke-width="5" stroke-linecap="round"/><line x1="611" y1="268" x2="611" y2="430" stroke="#18a058" stroke-width="7"/><line x1="871" y1="268" x2="871" y2="430" stroke="#18a058" stroke-width="7"/><circle cx="741.0" cy="286.1" r="13.7" fill="#f1d4bd" stroke="#142018" stroke-width="3"/><path d="M 751.5 305.0 Q 741.0 347.0 730.5 305.0 Z" fill="#d9efe2" stroke="#142018" stroke-width="3"/><line x1="770.4" y1="326.0" x2="751.5" y2="302.9" stroke="#142018" stroke-width="8" stroke-linecap="round"/><line x1="730.5" y1="302.9" x2="711.6" y2="326.0" stroke="#142018" stroke-width="8" stroke-linecap="round"/><line x1="749.4" y1="347.0" x2="767.2" y2="397.4" stroke="#142018" stroke-width="8" stroke-linecap="round"/><line x1="732.6" y1="347.0" x2="714.8" y2="397.4" stroke="#142018" stroke-width="8" stroke-linecap="round"/><ellipse cx="741.0" cy="317.0" rx="42" ry="20" fill="#18a058" opacity=".16"/>
  <g transform="translate(54,502)"><circle cx="18" cy="18" r="18" fill="#18a058"/><text x="12" y="25" font-size="20" font-weight="800" fill="#fff">1</text><text x="48" y="24" class="s">Setup stabile</text></g><g transform="translate(354,502)"><circle cx="18" cy="18" r="18" fill="#18a058"/><text x="12" y="25" font-size="20" font-weight="800" fill="#fff">2</text><text x="48" y="24" class="s">Controllo start → end</text></g><g transform="translate(654,502)"><circle cx="18" cy="18" r="18" fill="#18a058"/><text x="12" y="25" font-size="20" font-weight="800" fill="#fff">3</text><text x="48" y="24" class="s">Respira e non compensare</text></g>
  <rect x="44" y="560" width="912" height="54" rx="18" fill="#fbfffc" stroke="#dfe9e2"/>
  <text x="68" y="584" class="s">Consiglio: Core e glutei attivi: scendi controllato e spingi senza collassare sulle spalle.</text>
  <text x="68" y="606" class="s">Errori: Allargare troppo i gomiti · Inarcare la zona lombare · Rimbalzare in basso</text>
</svg>