<svg xmlns="http://www.w3.org/2000/svg" viewBox="0 0 900 620" role="img" aria-label="Inverted Row">
  <defs>
    <linearGradient id="bg" x1="0" y1="0" x2="1" y2="1"><stop stop-color="#f7fff9"/><stop offset="1" stop-color="#e8f7ee"/></linearGradient>
    <style>
      .t{font:700 34px -apple-system,BlinkMacSystemFont,Segoe UI,Arial;fill:#142018}
      .s{font:600 18px -apple-system,BlinkMacSystemFont,Segoe UI,Arial;fill:#587263}
      .l{stroke:#17231b;stroke-width:16;stroke-linecap:round;stroke-linejoin:round;fill:none}
      .m{fill:#18a058;opacity:.72} .a{stroke:#18a058;stroke-width:12;stroke-linecap:round;fill:none;marker-end:url(#arr)}
      .thin{stroke:#17231b;stroke-width:9;stroke-linecap:round;fill:none}
    </style>
    <marker id="arr" markerWidth="10" markerHeight="10" refX="6" refY="3" orient="auto" markerUnits="strokeWidth"><path d="M0,0 L0,6 L7,3 z" fill="#18a058"/></marker>
  </defs>
  <rect width="900" height="620" rx="40" fill="url(#bg)"/>
  <text x="44" y="62" class="t">Inverted Row</text>
  <text x="44" y="94" class="s">Tutorial originale · start → end · Back · Biceps</text>
  <rect x="44" y="118" width="812" height="340" rx="28" fill="#fff" stroke="#dfe9e2"/>
  <path class="thin" d="M170 245 H730 M205 245 V405 M695 245 V405"/><circle cx="436.75" cy="275.75" r="14.45" fill="#f3c6a4" stroke="#17231b" stroke-width="5"/>
        <path class="l" d="M418.9 286.8 L330.5 325.9 L245.5 361.6 M330.5 325.9 L400.2 371.8 M408.7 291.9 L463.1 251.1 M408.7 291.9 L468.2 293.6"/>
        <ellipse class="m" cx="364.5" cy="316.55" rx="52" ry="25" transform="rotate(-23 364.5 316.55)"/><circle cx="666.75" cy="240.75" r="14.45" fill="#f3c6a4" stroke="#17231b" stroke-width="5"/>
        <path class="l" d="M648.9 251.8 L560.5 290.9 L475.5 326.6 M560.5 290.9 L630.2 336.8 M638.7 256.9 L693.1 216.1 M638.7 256.9 L698.2 258.6"/>
        <ellipse class="m" cx="594.5" cy="281.55" rx="52" ry="25" transform="rotate(-23 594.5 281.55)"/><path class="thin" d="M120 398 H780" stroke="#7e9184"/>
  <path class="a" d="M394 286 C454 226 518 226 582 286"/>
  <g transform="translate(52 485)">
    <circle cx="18" cy="18" r="18" fill="#18a058"/><text x="13" y="25" font-size="20" font-weight="800" fill="#fff">1</text><text x="48" y="24" class="s">Imposta posizione stabile</text>
    <circle cx="318" cy="18" r="18" fill="#18a058"/><text x="313" y="25" font-size="20" font-weight="800" fill="#fff">2</text><text x="348" y="24" class="s">Muovi con controllo</text>
    <circle cx="610" cy="18" r="18" fill="#18a058"/><text x="605" y="25" font-size="20" font-weight="800" fill="#fff">3</text><text x="640" y="24" class="s">Evita slanci</text>
  </g>
  <rect x="52" y="540" width="796" height="42" rx="21" fill="#ffffff" stroke="#dfe9e2"/>
  <text x="76" y="567" class="s">Consiglio: mantieni core attivo e respira durante il movimento.</text>
</svg>