<svg xmlns="http://www.w3.org/2000/svg" viewBox="0 0 1000 650" role="img" aria-label="Side Plank exercise tutorial">
  <defs><style>
    .t{font:800 36px -apple-system,BlinkMacSystemFont,'Segoe UI',Arial,sans-serif;fill:#142018}
    .s{font:600 18px -apple-system,BlinkMacSystemFont,'Segoe UI',Arial,sans-serif;fill:#627265}
    .label{font:900 18px -apple-system,BlinkMacSystemFont,'Segoe UI',Arial,sans-serif;fill:#18a058;letter-spacing:.08em}
    .chip{font:700 15px -apple-system,BlinkMacSystemFont,'Segoe UI',Arial,sans-serif;fill:#0c7a3e}
  </style></defs>
  <rect width="1000" height="650" rx="34" fill="#ffffff"/>
  <rect x="18" y="18" width="964" height="614" rx="30" fill="#ffffff" stroke="#dfe9e2" stroke-width="3"/>
  <text x="44" y="64" class="t">Side Plank</text>
  <text x="44" y="94" class="s">Scheda fitness didattica originale · Core · Start → End</text>
  <rect x="44" y="104" width="132" height="30" rx="15" fill="#e7f7ed"/><text x="60" y="124" class="chip">Core</text><rect x="189" y="104" width="132" height="30" rx="15" fill="#e7f7ed"/><text x="205" y="124" class="chip">Shoulders</text>
  <rect x="44" y="152" width="430" height="320" rx="24" fill="#fbfffc" stroke="#dfe9e2"/><text x="66" y="186" class="label">START</text><line x1="72" y1="430" x2="446" y2="430" stroke="#dfe9e2" stroke-width="5" stroke-linecap="round"/><rect x="102" y="412" width="314" height="18" rx="9" fill="#e7f7ed"/><circle cx="259.0" cy="317.1" r="13.7" fill="#f1d4bd" stroke="#142018" stroke-width="3"/><path d="M 248.5 336.0 Q 259.0 378.0 269.5 336.0 Z" fill="#d9efe2" stroke="#142018" stroke-width="3"/><line x1="214.9" y1="359.1" x2="248.5" y2="342.3" stroke="#142018" stroke-width="8" stroke-linecap="round"/><line x1="269.5" y1="342.3" x2="303.1" y2="359.1" stroke="#142018" stroke-width="8" stroke-linecap="round"/><line x1="250.6" y1="378.0" x2="181.3" y2="396.9" stroke="#142018" stroke-width="8" stroke-linecap="round"/><line x1="267.4" y1="378.0" x2="338.8" y2="395.9" stroke="#142018" stroke-width="8" stroke-linecap="round"/><ellipse cx="259.0" cy="372.0" rx="44" ry="22" fill="#18a058" opacity=".16"/>
  <rect x="526" y="152" width="430" height="320" rx="24" fill="#fbfffc" stroke="#dfe9e2"/><text x="548" y="186" class="label">END</text><line x1="554" y1="430" x2="928" y2="430" stroke="#dfe9e2" stroke-width="5" stroke-linecap="round"/><rect x="584" y="412" width="314" height="18" rx="9" fill="#e7f7ed"/><circle cx="741.0" cy="317.1" r="13.7" fill="#f1d4bd" stroke="#142018" stroke-width="3"/><path d="M 751.5 336.0 Q 741.0 378.0 730.5 336.0 Z" fill="#d9efe2" stroke="#142018" stroke-width="3"/><line x1="785.1" y1="359.1" x2="751.5" y2="342.3" stroke="#142018" stroke-width="8" stroke-linecap="round"/><line x1="730.5" y1="342.3" x2="696.9" y2="359.1" stroke="#142018" stroke-width="8" stroke-linecap="round"/><line x1="749.4" y1="378.0" x2="818.7" y2="396.9" stroke="#142018" stroke-width="8" stroke-linecap="round"/><line x1="732.6" y1="378.0" x2="661.2" y2="395.9" stroke="#142018" stroke-width="8" stroke-linecap="round"/><ellipse cx="741.0" cy="372.0" rx="44" ry="22" fill="#18a058" opacity=".16"/>
  <g transform="translate(54,502)"><circle cx="18" cy="18" r="18" fill="#18a058"/><text x="12" y="25" font-size="20" font-weight="800" fill="#fff">1</text><text x="48" y="24" class="s">Setup stabile</text></g><g transform="translate(354,502)"><circle cx="18" cy="18" r="18" fill="#18a058"/><text x="12" y="25" font-size="20" font-weight="800" fill="#fff">2</text><text x="48" y="24" class="s">Controllo start → end</text></g><g transform="translate(654,502)"><circle cx="18" cy="18" r="18" fill="#18a058"/><text x="12" y="25" font-size="20" font-weight="800" fill="#fff">3</text><text x="48" y="24" class="s">Respira e non compensare</text></g>
  <rect x="44" y="560" width="912" height="54" rx="18" fill="#fbfffc" stroke="#dfe9e2"/>
  <text x="68" y="584" class="s">Consiglio: Muovi dal bacino/addome, non dal collo: espira nella fase difficile.</text>
  <text x="68" y="606" class="s">Errori: Tirare il collo · Compensare con slancio · Perdere retroversione del bacino</text>
</svg>