<svg xmlns="http://www.w3.org/2000/svg" viewBox="0 0 900 620" role="img" aria-label="Squat">
  <defs>
    <linearGradient id="bg" x1="0" y1="0" x2="1" y2="1"><stop stop-color="#f7fff9"/><stop offset="1" stop-color="#e8f7ee"/></linearGradient>
    <style>
      .t{font:700 34px -apple-system,BlinkMacSystemFont,Segoe UI,Arial;fill:#142018}
      .s{font:600 18px -apple-system,BlinkMacSystemFont,Segoe UI,Arial;fill:#587263}
      .l{stroke:#17231b;stroke-width:16;stroke-linecap:round;stroke-linejoin:round;fill:none}
      .m{fill:#18a058;opacity:.72} .a{stroke:#18a058;stroke-width:12;stroke-linecap:round;fill:none;marker-end:url(#arr)}
      .thin{stroke:#17231b;stroke-width:9;stroke-linecap:round;fill:none}
    </style>
    <marker id="arr" markerWidth="10" markerHeight="10" refX="6" refY="3" orient="auto" markerUnits="strokeWidth"><path d="M0,0 L0,6 L7,3 z" fill="#18a058"/></marker>
  </defs>
  <rect width="900" height="620" rx="40" fill="url(#bg)"/>
  <text x="44" y="62" class="t">Squat</text>
  <text x="44" y="94" class="s">Tutorial originale · start → end · Quads · Glutes</text>
  <rect x="44" y="118" width="812" height="340" rx="28" fill="#fff" stroke="#dfe9e2"/>
  <circle cx="310" cy="226.5" r="15.3" fill="#f3c6a4" stroke="#17231b" stroke-width="5"/>
        <path class="l" d="M310 247.2 L310 312.0 M270.4 265.2 L349.6 265.2 M310 312.0 L257.8 376.8 L215.5 376.8 M310 312.0 L362.2 376.8 L404.5 376.8"/>
        <ellipse class="m" cx="310" cy="286.8" rx="36" ry="47"/><circle cx="610" cy="256.5" r="15.3" fill="#f3c6a4" stroke="#17231b" stroke-width="5"/>
        <path class="l" d="M610 277.2 L610 342.0 M570.4 295.2 L649.6 295.2 M610 342.0 L557.8 406.8 L515.5 406.8 M610 342.0 L662.2 406.8 L704.5 406.8"/>
        <ellipse class="m" cx="610" cy="316.8" rx="36" ry="47"/><path class="thin" d="M120 398 H780" stroke="#7e9184"/>
  <path class="a" d="M394 286 C454 226 518 226 582 286"/>
  <g transform="translate(52 485)">
    <circle cx="18" cy="18" r="18" fill="#18a058"/><text x="13" y="25" font-size="20" font-weight="800" fill="#fff">1</text><text x="48" y="24" class="s">Imposta posizione stabile</text>
    <circle cx="318" cy="18" r="18" fill="#18a058"/><text x="313" y="25" font-size="20" font-weight="800" fill="#fff">2</text><text x="348" y="24" class="s">Muovi con controllo</text>
    <circle cx="610" cy="18" r="18" fill="#18a058"/><text x="605" y="25" font-size="20" font-weight="800" fill="#fff">3</text><text x="640" y="24" class="s">Evita slanci</text>
  </g>
  <rect x="52" y="540" width="796" height="42" rx="21" fill="#ffffff" stroke="#dfe9e2"/>
  <text x="76" y="567" class="s">Consiglio: mantieni core attivo e respira durante il movimento.</text>
</svg>